<svg version="1.2" baseProfile="tiny-ps" xmlns="http://www.w3.org/2000/svg" viewBox="0 0 91 102" width="91" height="102">
	<title>New Project</title>
	<style>
		tspan { white-space:pre }
		.shp0 { fill: #000000 } 
	</style>
	<path id="Path 0" fill-rule="evenodd" class="shp0" d="M55.5 2.85C62.79 3.07 68.77 3.75 70.75 4.6C72.54 5.37 74.56 7.17 75.25 8.61C76.22 10.64 76.24 12.37 75.36 16.36C74.73 19.19 74.4 21.84 74.61 22.25C74.82 22.66 76.35 23 78 23C79.99 23 82.53 24.26 85.55 26.75C90.04 30.46 90.09 30.57 90.02 36.5C89.96 41.05 89.23 43.95 86.96 48.5C85.32 51.8 81.08 57.88 71.1 69.5L70.46 78C70.11 82.67 69.42 88.19 68.91 90.25C68.41 92.31 67.21 94.39 66.25 94.86C65.29 95.34 59.77 96.02 54 96.38C48.23 96.74 41.7 97.54 39.5 98.17C37.3 98.8 30.62 99.36 24.66 99.41C14.31 99.5 13.73 99.39 11.63 97C10.07 95.21 8.82 91.22 7.26 83C6.06 76.67 4.58 68.35 3.98 64.5C3.35 60.42 3.02 47.66 3.2 33.9C3.44 14.66 3.78 9.99 5 8.61C5.82 7.67 7.85 6.94 9.5 6.97C11.15 7 16.55 6.29 21.5 5.39C26.45 4.49 33.43 3.48 37 3.13C40.57 2.78 48.9 2.66 55.5 2.85ZM72.21 46.47C71.75 53.97 71.85 58.02 72.5 58.03C73.05 58.04 74.69 56.8 76.14 55.27C77.59 53.75 79.57 50.92 80.56 49C81.54 47.08 82.37 43.48 82.41 41C82.45 38.52 82.15 35.71 81.74 34.75C81.24 33.56 79.89 33 77.55 33C75.65 33 73.83 33.43 73.51 33.96C73.19 34.49 72.6 40.12 72.21 46.47Z" />
</svg>