<svg version="1.2" baseProfile="tiny-ps" xmlns="http://www.w3.org/2000/svg" viewBox="40 205 250 199" width="100" height="97">
	<title>New Project</title>
	<style>
		tspan { white-space:pre }
		.shp0 { fill: #000000 } 
		.shp1 { fill: #ffffff } 
	</style>
	<g id="Laptop">
			<path id="Path 0" class="shp0" d="M47.15 268.86C45.97 270.04 45 271.45 45 272C45 272.55 45.7 278.06 46.56 284.25C47.42 290.44 49.45 301.13 51.08 308C52.7 314.88 55.66 325.45 57.66 331.5C59.65 337.55 63.05 347 65.21 352.5C67.38 358 71.48 366.87 74.33 372.21L79.5 381.91C92.68 387.24 105.28 391.49 116 394.79C126.72 398.09 140.9 401.95 147.5 403.36C154.1 404.78 166.47 407.12 175 408.57C183.52 410.02 194.32 411.83 199 412.6C203.68 413.37 210.43 414.42 214 414.95C217.57 415.47 222.52 415.99 225 416.1C228.65 416.26 230.45 415.65 234.54 412.9C237.32 411.03 242.05 406.8 245.07 403.5C248.09 400.2 252.86 393.67 255.67 389C258.48 384.33 261.56 379.83 262.51 379C263.46 378.17 264.79 376.38 265.46 375C266.26 373.36 266.48 370.15 266.09 365.68C265.63 360.31 265.08 358.61 263.5 357.68C262.4 357.03 258.35 355.27 254.5 353.76C250.65 352.25 242.26 350.23 235.86 349.26C225.51 347.69 224.04 347.67 222.59 349C221.69 349.83 220.78 350.27 220.56 350C220.35 349.73 219.21 345.67 218.04 341C216.88 336.33 213.61 324.4 210.79 314.5C207.6 303.33 204.87 295.63 203.58 294.22C202.21 292.71 196.38 290.25 186.5 287.01C178.25 284.3 165.43 280.94 158 279.53C150.57 278.12 139.78 276.09 134 275.02C128.22 273.94 116.75 272.17 108.5 271.07C100.25 269.98 89 268.86 83.5 268.59C78 268.32 68.06 267.79 61.4 267.41C49.9 266.75 49.2 266.82 47.15 268.86Z" />
			<path id="Path 1" class="shp1" d="M56.22 274.41C55.17 275.77 55.47 276.08 58.25 276.57C60.04 276.88 63.4 276.99 65.72 276.82C68.6 276.6 69.71 276.13 69.22 275.35C68.82 274.72 66.01 273.89 62.97 273.51C58.51 272.95 57.19 273.13 56.22 274.41ZM74.57 275.84C74.82 276.51 78.28 277.24 82.75 277.56C87.01 277.87 98.15 279.27 107.5 280.66C116.85 282.05 132.38 284.73 142 286.62C151.63 288.5 163.55 291.2 168.5 292.6C173.45 294 181.1 296.28 185.5 297.66C189.9 299.05 194.18 299.9 195 299.57C196 299.16 196.16 298.62 195.5 297.97C194.95 297.43 188.65 295.18 181.5 292.95C174.35 290.73 163.78 288.02 158 286.91C152.22 285.81 140.75 283.6 132.5 282.01C124.25 280.41 112.55 278.38 106.5 277.49C100.45 276.61 90.69 275.61 84.82 275.28C76.93 274.84 74.25 274.99 74.57 275.84ZM197.55 302C197.25 302.55 197.64 305.14 198.42 307.75C199.2 310.36 200.37 314.98 201.03 318C201.69 321.02 204.4 330.92 207.04 340C209.68 349.08 213.04 361.23 214.49 367C215.95 372.77 219.36 384.36 222.07 392.75C225.31 402.79 227.43 407.88 228.25 407.65C228.98 407.44 229.37 406.1 229.18 404.4C229 402.8 228.27 400.83 227.55 400C226.84 399.17 225.75 396.81 225.13 394.75C224.51 392.69 223.55 391 223 391C222.45 391 222.24 390.44 222.53 389.75C222.83 389.06 220.11 376.58 216.5 362C212.89 347.42 208.03 327.74 205.71 318.25C202.31 304.39 201.15 301 199.79 301C198.86 301 197.85 301.45 197.55 302ZM119.02 328.75C119.03 329.71 119.59 332.17 120.27 334.21C121.43 337.71 121.35 338.05 118.75 340.46C116.93 342.14 116 344.01 116 346C116 348.97 116.05 349 121.01 348.75C125.71 348.52 126.15 348.71 128.01 351.75C129.11 353.54 130.68 355 131.5 355C132.46 355 133.36 353.39 134 350.5L135 346C141.97 347.3 143.03 347.17 143.02 346.25C143.01 345.56 141.88 343.42 140.5 341.5C138.13 338.18 138.08 337.82 139.47 334.51C140.27 332.59 140.83 330.76 140.72 330.44C140.6 330.11 138.25 330.36 135.5 330.98C130.87 332.03 130.17 331.93 126 329.57C123.53 328.17 120.94 327.02 120.25 327.01C119.56 327.01 119.01 327.79 119.02 328.75ZM221.6 352.75C221.33 353.16 221.46 354.85 221.88 356.5C222.62 359.34 222.9 359.48 227.08 359.17C229.51 358.99 234.43 359.56 238 360.43C241.57 361.3 245.4 362.65 246.5 363.42C248.49 364.82 248.49 364.86 246.13 369.66C244.83 372.32 242.8 375.79 241.63 377.36C240.46 378.93 238.04 381.74 236.25 383.61C234.46 385.47 232.55 386.77 232 386.5C231.45 386.23 230.77 386.45 230.5 387C230.23 387.55 230.79 390.48 231.75 393.52C232.71 396.55 233.84 399.03 234.25 399.02C234.66 399.01 237.42 395.74 240.38 391.75C243.35 387.76 247.89 380.45 250.48 375.5C253.07 370.55 256.03 365.38 257.05 364L258.92 361.5C247.74 356.6 240.45 354.46 235.5 353.59C230.55 352.72 225.51 352 224.3 352C223.09 352 221.87 352.34 221.6 352.75ZM257.03 372C256.46 373.1 256.21 374.34 256.48 374.75C256.74 375.16 257.66 374.83 258.52 374C259.38 373.17 260.07 371.94 260.04 371.25C260.02 370.56 259.56 370 259.03 370C258.49 370 257.59 370.9 257.03 372ZM245.9 389.78C242.97 394.57 240.45 399.06 240.29 399.75C240.13 400.44 240.45 400.77 241 400.5C241.55 400.23 243.28 398.09 244.84 395.75C246.41 393.41 248.88 389.36 250.34 386.75C251.8 384.14 252.6 381.79 252.11 381.53C251.62 381.27 248.83 384.98 245.9 389.78Z" />
	</g>
</svg>