<svg version="1.2" baseProfile="tiny-ps" xmlns="http://www.w3.org/2000/svg" viewBox="0 0 443 430" width="443" height="430">
	<title>New Project</title>
	<style>
		tspan { white-space:pre }
		.shp0 { opacity: 0.4;fill: #b6ffff } 
	</style>
	<g id="Laptop">
		<g id="Laptop Outline">
		</g>
		<path id="Path 0" class="shp0" d="M170 29.51C165.32 30.23 157.45 31.77 152.5 32.93C147.55 34.09 139.22 36.43 134 38.14C128.78 39.85 119.32 43.7 113 46.69C106.68 49.68 98.8 53.75 95.5 55.73C92.2 57.72 85.68 62.07 81 65.41C76.32 68.74 68 75.51 62.5 80.44C57 85.37 49.54 93.03 45.92 97.45C42.31 101.88 36.85 109.1 33.79 113.5C30.74 117.9 27.06 123.86 25.62 126.75C23.71 130.57 22.84 134.24 22.39 140.25C21.88 147.28 22.24 150.5 24.86 162C26.55 169.43 30.18 186.07 32.93 199C35.69 211.93 39.73 228.57 41.92 236C44.11 243.43 47.2 253.32 48.79 258L51.68 266.5C60.07 267.57 67.68 268.37 74 268.96C80.32 269.56 91.35 270.74 98.5 271.6C105.65 272.45 115.78 273.81 121 274.63C126.22 275.44 133.43 276.78 137 277.61C140.57 278.43 152.5 280.9 163.5 283.1C174.5 285.29 187.32 288.23 192 289.62C196.68 291.02 201.25 292.69 202.17 293.33C203.24 294.08 205.66 301.44 208.95 314C211.76 324.73 215.86 340.92 218.06 350C220.26 359.08 224.33 373.48 227.12 382C229.9 390.52 232.96 399.98 233.92 403C234.94 406.22 236.25 408.5 237.07 408.5C237.84 408.5 240.5 405.74 242.99 402.36C245.47 398.99 250.65 391.91 254.5 386.63C259.99 379.1 261.45 376.38 261.25 374.02C261.03 371.35 262.64 369.36 275.25 356.71C283.09 348.85 296.48 336.36 305 328.96C313.52 321.56 324.77 311.68 330 306.99C335.23 302.31 344.23 293.92 350 288.36C355.77 282.79 362.92 276.27 365.87 273.87C368.83 271.46 375.58 265.66 380.87 260.96C388.33 254.35 391.16 251.08 393.44 246.46C396.05 241.17 396.43 239.21 396.83 229C397.07 222.68 396.74 212.32 396.08 206C395.42 199.68 393.97 189.77 392.85 184C391.74 178.23 389.25 168.77 387.32 163C385.4 157.23 381.13 146.88 377.83 140C374.54 133.13 369.34 123.68 366.29 119C363.24 114.32 357.7 106.68 353.98 102C350.26 97.32 342.78 89.2 337.36 83.94C331.94 78.68 323.23 71.19 318 67.3C312.77 63.41 304.23 57.75 299 54.72C293.77 51.68 285.45 47.42 280.5 45.23C275.55 43.05 268.35 40.14 264.5 38.77C260.65 37.39 251.65 34.87 244.5 33.17C237.35 31.46 227.68 29.6 223 29.03C218.32 28.46 206.4 28.04 196.5 28.1C186.6 28.15 174.68 28.79 170 29.51Z" />
	</g>
</svg>