<svg version="1.2" baseProfile="tiny-ps" xmlns="http://www.w3.org/2000/svg" viewBox="0 0 424 441" width="424" height="441">
	<title>New Project</title>
	<style>
		tspan { white-space:pre }
		.shp0 { fill: #000000 } 
		.shp1 { fill: #f2f2f2 } 
		.shp2 { fill: #fffefd } 
	</style>
	<g id="Pharmacist">
		<path id="Path 0" class="shp0" d="M256 222.84C253.52 224.39 250.15 227.31 248.5 229.35C245.77 232.71 245.25 232.96 242.75 232.02C241.24 231.46 233.36 231.01 225.25 231.02C216.87 231.03 207.05 231.66 202.5 232.48C198.1 233.27 190.9 235 186.5 236.32C182.1 237.65 171.98 241.31 164 244.47C156.03 247.62 148.88 250.72 148.12 251.35C147.36 251.98 145.36 254.3 143.66 256.5C141.97 258.7 141.5 259.71 142.62 258.75C143.74 257.79 144.96 257 145.33 257C145.7 257 147.24 256.09 148.75 254.97C150.26 253.85 158.03 250.65 166 247.86C173.98 245.08 183.88 241.95 188 240.91C192.13 239.88 199.89 238.35 205.25 237.52C210.61 236.68 220.29 235.98 226.75 235.96C236.62 235.92 238.74 236.18 240 237.62C240.82 238.56 241.61 239.82 241.74 240.42C241.87 241.01 242.85 244.65 243.9 248.5C244.96 252.35 245.91 255.05 246.01 254.5C246.12 253.95 246.61 255.07 247.11 257C247.61 258.93 248.35 266.24 248.76 273.25L249.5 286.01C246.01 286 244.77 286.68 244.5 287.5C244.23 288.32 241.41 290.97 238.25 293.37C235.09 295.77 228 299.79 222.5 302.31C217 304.83 208.9 307.87 204.5 309.07C198.81 310.62 194.91 311.09 191 310.71C187.98 310.42 181.9 309.04 177.5 307.65C170.97 305.58 168.76 304.32 165.5 300.81C163.3 298.45 159.43 293.81 156.9 290.51C154.37 287.2 151 283.12 149.4 281.44C147.81 279.75 144.81 274.92 142.75 270.69C140.69 266.46 139.22 262.55 139.5 262C139.78 261.45 139.21 260.76 138.25 260.48C137.29 260.19 136.05 260.4 135.5 260.94C134.84 261.59 135.51 264.18 137.5 268.66C139.15 272.37 143.65 280.24 147.5 286.16C152.14 293.29 156.78 298.96 161.25 302.96C164.96 306.28 169.8 309.9 172 311C174.2 312.1 178.59 313.68 181.75 314.5C185.78 315.56 188.4 315.73 190.5 315.08C192.15 314.57 196.2 313.84 199.5 313.45C202.8 313.07 209.1 311.5 213.5 309.98C217.9 308.45 223.3 306.44 225.5 305.5C227.7 304.57 233.1 301.38 237.5 298.41C241.9 295.44 247.41 291.21 249.75 289.01L254 285C254.17 272.99 253.69 266.57 253.06 263C252.42 259.43 250.82 252.45 249.5 247.5C248.18 242.55 246.85 237.71 246.55 236.75C246.19 235.61 247.13 233.93 249.25 231.92C251.04 230.22 254.86 227.3 257.75 225.42C260.64 223.54 263 221.55 263 221C263 220.45 262.44 220.01 261.75 220.02C261.06 220.03 258.48 221.3 256 222.84Z" />
		<path id="Path 1" class="shp1" d="M204.5 237.52C200.1 238.24 192.9 239.71 188.5 240.81C184.1 241.9 173.98 245.08 166 247.86C158.03 250.65 150.26 253.85 148.75 254.97C147.24 256.09 145.63 257 145.19 257C144.74 257 143.16 258.13 141.69 259.5C140.21 260.88 139 262.23 139 262.5C139 262.77 140.69 266.46 142.75 270.69C144.81 274.92 147.81 279.75 149.4 281.44C151 283.12 154.37 287.2 156.9 290.51C159.43 293.81 163.3 298.45 165.5 300.81C168.76 304.32 170.97 305.58 177.5 307.65C181.9 309.04 187.98 310.42 191 310.71C194.91 311.09 198.81 310.62 204.5 309.07C208.9 307.87 217 304.83 222.5 302.31C228 299.79 235.09 295.77 238.25 293.37C241.41 290.97 244.23 288.32 244.5 287.5C244.77 286.68 246.01 286 247.25 286L249.5 286.01C248.35 266.24 247.61 258.93 247.11 257C246.61 255.07 246.12 253.95 246.01 254.5C245.91 255.05 244.96 252.35 243.9 248.5C242.85 244.65 241.87 241.01 241.74 240.42C241.61 239.82 240.82 238.56 240 237.62C238.71 236.16 236.64 235.93 225.5 236.07C218.35 236.16 208.9 236.81 204.5 237.52Z" />
		<path id="Path 2" class="shp0" d="M221.5 252.5C220.95 252.69 215.18 253.38 208.67 254.02C200.8 254.81 196.92 255.59 197.09 256.35C197.28 257.21 200.75 257.18 210.92 256.24C218.39 255.54 224.61 254.75 224.75 254.49C224.89 254.22 224.77 253.55 224.5 253C224.23 252.45 223.66 252.04 223.25 252.08C222.84 252.12 222.05 252.31 221.5 252.5ZM117.69 259.88C117.31 260.5 117.11 261.17 117.25 261.37C117.39 261.57 120.65 262.04 124.5 262.41C130.42 262.97 131.5 262.83 131.5 261.54C131.5 260.66 130.64 260 129.5 260.01C128.4 260.01 125.45 259.73 122.94 259.39C120.01 258.99 118.13 259.17 117.69 259.88ZM214 279.39C208.77 281.24 201.69 283.83 198.25 285.13C194.81 286.43 192 287.84 192 288.25C192 288.66 192.9 289 194 289C195.1 289 199.94 287.49 204.75 285.65C209.56 283.81 216.55 281.45 220.27 280.4C224.05 279.34 227.04 277.95 227.02 277.25C227.01 276.56 226.21 276 225.25 276.01C224.29 276.01 219.23 277.53 214 279.39ZM267.27 312.3C266.82 312.96 265.02 318 263.27 323.5C261.52 329 259.19 336.88 258.07 341C256.96 345.13 255.77 350.98 255.42 354C254.97 357.86 255.45 362.92 257.03 371C258.26 377.32 260.97 388.35 263.05 395.5C265.12 402.65 267.99 411.09 269.41 414.25C271.56 419.03 272.42 420 274.5 420C275.88 420 277 419.77 277 419.5C277 419.23 275.85 416.41 274.44 413.25C273.03 410.09 270.39 402.32 268.58 396C266.76 389.68 264.55 381.13 263.68 377C262.8 372.88 261.83 368.04 261.54 366.25C261.05 363.28 261.61 362.39 268 356C271.85 352.15 275 348.32 275 347.5C275 346.68 274.66 345.98 274.25 345.97C273.84 345.95 272.15 346.95 270.5 348.2C268.85 349.45 266.6 351.3 265.5 352.32C264.4 353.33 262.71 354.58 261.75 355.08C260.45 355.77 259.84 355.55 259.36 354.25C259.01 353.29 259.51 349.35 260.48 345.5C261.44 341.65 263.78 333.1 265.67 326.5C267.57 319.9 268.89 313.74 268.6 312.8C268.23 311.57 267.86 311.43 267.27 312.3Z" />
		<path id="Path 3" class="shp2" d="M269.34 315.5C269.7 316.32 269.66 316.99 269.25 316.98C268.84 316.98 267.43 320.46 266.13 324.73C264.62 329.65 264.07 333.05 264.62 334C265.29 335.17 265.16 335.28 264.03 334.5C262.85 333.69 262.71 333.92 263.29 335.75C263.68 336.99 263.66 337.99 263.25 337.99C262.84 337.98 261.94 340.23 261.25 342.99C260.56 345.74 260.23 348.45 260.5 349C260.77 349.55 260.55 350 260 350C259.45 350 259 351.13 259 352.5C259 353.88 259.45 355.23 260 355.5C260.55 355.77 261 355.55 261 355C261 354.45 261.34 354.11 261.75 354.24C262.16 354.38 263.51 353.81 264.73 352.99C266.09 352.09 267.8 348.95 269.09 345C270.61 340.35 271.35 335.01 271.68 326.25C272.11 315.12 271.99 314 270.42 314C269.25 314 268.9 314.49 269.34 315.5ZM304.89 341.37C297.53 349.12 287.62 359.07 282.89 363.48C278.15 367.89 272.41 372.96 270.14 374.75C267.04 377.18 265.84 378.94 265.36 381.75C264.93 384.22 265.1 385.59 265.86 385.75C266.49 385.89 266.77 386.68 266.5 387.5C266.23 388.32 266.45 389 267 389C267.55 389 267.79 389.34 267.54 389.75C267.28 390.16 268 393.88 269.12 398C270.24 402.13 271.46 405.73 271.83 406C272.2 406.27 272.5 406.95 272.51 407.5C272.51 408.05 273.41 410.65 274.51 413.28C275.6 415.91 276.95 418.23 277.5 418.44C278.05 418.65 282.77 418.44 288 417.98C293.23 417.51 308.26 416.76 321.41 416.31C334.56 415.87 345.91 415.05 346.63 414.5C347.71 413.68 347.68 412.43 346.49 407.5C345.69 404.2 342.53 391.15 339.45 378.5C336.37 365.85 332.3 351.68 330.41 347C328.51 342.32 325.5 336.13 323.73 333.24C321.95 330.35 320 327.83 319.39 327.63C318.78 327.43 312.26 333.61 304.89 341.37Z" />
		<path id="Path 4" class="shp0" d="M213.08 340.46C213.03 341.31 213.34 342 213.75 342C214.16 341.99 214.95 342.84 215.5 343.89C216.05 344.93 217.85 347.88 219.5 350.45C221.45 353.48 222.15 355.43 221.5 356.02C220.89 356.57 217.86 355.96 213.75 354.46C210.04 353.11 207.01 352.34 207.02 352.75C207.02 353.16 207.36 354.01 207.77 354.62C208.17 355.24 210.9 356.82 213.83 358.12C218.65 360.27 219.1 360.74 218.51 363C218.16 364.38 217.56 367.38 217.18 369.68C216.53 373.67 216.65 373.93 219.9 375.68C221.77 376.68 224.69 378.72 226.4 380.21C228.1 381.7 230.06 382.94 230.75 382.96C231.44 382.98 232.48 384.91 233.06 387.25C233.64 389.59 236.23 398.15 238.81 406.27C242.51 417.92 243.87 421.04 245.25 421.02C246.21 421.01 247.23 420.55 247.5 420C247.77 419.45 245.73 411.91 242.95 403.25C240.17 394.59 236.81 383.23 235.49 378C234.16 372.77 232.16 365.91 231.04 362.75C229.92 359.59 227.09 354.67 224.75 351.82C222.41 348.98 218.85 344.91 216.83 342.79C214.43 340.26 213.13 339.46 213.08 340.46Z" />
		<path id="Path 5" fill-rule="evenodd" class="shp2" d="M213.29 341.54C213.96 341.77 214.89 342.97 215.36 344.23C215.83 345.48 216.17 346.84 216.11 347.25C216.05 347.66 216.34 347.79 216.75 347.54C217.16 347.29 218.46 348.75 219.62 350.79C220.79 352.83 221.58 355.06 221.37 355.75C221.17 356.44 220.55 357 220 357C219.45 357 219.33 356.44 219.74 355.75C220.18 355.01 220.08 354.79 219.49 355.2C218.95 355.59 216.09 355.14 207.78 352.5L208.39 348.06C208.72 345.62 209.69 343.06 210.54 342.38C211.39 341.7 212.63 341.32 213.29 341.54ZM208.25 356.33C209.03 356.33 209.74 356.71 209.83 357.17C209.93 357.63 210.45 357.77 211 357.5C211.55 357.23 213.35 357.68 215 358.5C216.65 359.32 218.14 360.56 218.31 361.25C218.49 361.94 218.15 365.27 217.56 368.64C216.98 372.02 216.73 374.75 217 374.69C217.27 374.64 219.3 375.54 221.5 376.69C223.7 377.84 226.4 379.75 227.5 380.93C228.6 382.1 230.06 383.05 230.75 383.03C231.44 383.01 232.23 383.9 232.5 385C232.77 386.1 232.77 387.45 232.5 388C232.23 388.55 232.46 389.11 233.02 389.25C233.58 389.39 234.14 390.96 234.27 392.75C234.4 394.53 234.84 396 235.25 396C235.66 396 236.42 397.91 236.93 400.25C237.45 402.59 237.67 404.84 237.43 405.25C237.2 405.66 237.45 406 238 406C238.55 406 238.77 406.68 238.5 407.5C238.23 408.32 238.34 408.99 238.75 408.98C239.16 408.98 240.27 411.34 241.2 414.23C242.14 417.13 242.7 419.84 242.45 420.25C242.2 420.66 242.55 421 243.21 421C244.04 421 243.96 421.43 242.96 422.34C241.93 423.3 239.25 423.59 233.75 423.34C226.03 423 226 422.99 224.8 419.75C224.14 417.96 221.85 412.9 219.72 408.5C217.58 404.1 214.45 396.9 212.77 392.5C211.08 388.1 208.88 380.45 207.86 375.5C206.85 370.55 206.02 364.81 206.01 362.75C206.01 360.69 206.19 358.4 206.42 357.67C206.65 356.93 207.47 356.33 208.25 356.33ZM224.52 362C225.33 362 226.25 362.56 226.55 363.25C226.86 363.94 227.2 365.74 227.3 367.25C227.41 368.76 227.84 370 228.25 370C228.66 370 228.89 370.98 228.75 372.17C228.61 373.37 227.94 374.49 227.25 374.67C226.56 374.85 224.76 373.84 223.25 372.42C221.74 371 221.15 370.21 221.93 370.67C223.09 371.34 223.22 371.02 222.59 369C222.16 367.63 222.08 365.49 222.42 364.25C222.76 363.01 223.7 362 224.52 362Z" />
		<path id="Path 6" class="shp0" d="M286.25 373.28C285.01 373.97 283.21 375.75 282.25 377.24C280.58 379.83 280.58 380.27 282.31 386.73C283.3 390.45 284.65 394.08 285.31 394.79C285.96 395.51 287.06 396.07 287.75 396.04C288.62 396.01 288.85 394.79 288.5 392C288.23 389.8 288.23 388 288.5 388C288.77 388 291.81 389.42 295.25 391.15C299.01 393.04 302.2 394.04 303.25 393.65C304.44 393.21 304.84 392.28 304.51 390.75C304.24 389.51 304.58 387.67 305.26 386.65C306.46 384.86 306.61 384.87 310 386.85C311.93 387.97 313.84 388.69 314.25 388.45C314.66 388.2 315 387.32 315 386.5C315 385.68 313.43 384.1 311.5 383L308 381C311.17 375.21 311.21 374.62 309.99 373.73C308.96 372.98 308.19 373.08 307.22 374.09C306.49 374.87 305.69 376.29 305.44 377.25C305.15 378.43 304.34 378.84 303 378.5C301.9 378.23 300.77 378.45 300.5 379C300.23 379.55 300.7 380.56 301.56 381.25C302.8 382.25 302.9 383.06 302.06 385.25C301.47 386.76 300.77 388 300.5 388C300.23 388 298.65 387.32 297 386.5C294.18 385.09 294.04 384.75 294.65 380.75C295.19 377.22 294.94 376.12 293.15 374.25C291.97 373.01 290.44 372.01 289.75 372.01C289.06 372.02 287.49 372.59 286.25 373.28Z" />
		<path id="Path 7" class="shp2" d="M286.02 377.17C285.24 377.85 284.69 379.21 284.8 380.2C284.91 381.19 285.79 381.99 286.75 381.98C287.71 381.98 289.1 381.64 289.82 381.23C290.55 380.83 290.99 379.6 290.81 378.5C290.62 377.4 289.79 376.37 288.95 376.22C288.12 376.07 286.8 376.49 286.02 377.17Z" />
	</g>
</svg>