<svg version="1.2" baseProfile="tiny-ps" xmlns="http://www.w3.org/2000/svg" viewBox="0 0 64 95" width="64" height="95">
	<title>New Project</title>
	<style>
		tspan { white-space:pre }
		.shp0 { opacity: 0.996;fill: #535353 } 
		.shp1 { opacity: 0.996;fill: #fdfdfd } 
	</style>
	<path id="smoke_outline" class="shp0" d="M14.36 2.73C13.74 3.19 11.55 7.16 9.49 11.54C7.43 15.92 4.89 22.88 3.84 27C2.79 31.13 2.14 35.4 2.39 36.5C2.67 37.73 4.7 39.3 7.67 40.58L12.5 42.66C13.94 55.42 13.73 56.67 10.87 63.75C8.13 70.55 7.89 71.87 8.92 74.5C9.57 76.15 11.21 80.99 12.55 85.25C13.93 89.6 15.51 92.89 16.16 92.75C16.79 92.61 17.82 90.25 18.44 87.5C19.06 84.75 20.84 80.03 22.39 77C23.95 73.97 26.18 70.45 27.36 69.17C28.54 67.88 32.42 65.37 36 63.57C39.58 61.78 46.1 58.16 50.5 55.52C54.9 52.88 59.3 49.99 60.28 49.11C61.26 48.22 62.05 46.26 62.03 44.75C62.01 43.24 60.16 35.59 57.9 27.75C55.65 19.91 52.95 11.81 51.9 9.75C50.76 7.51 49.1 5.82 47.75 5.55C46.51 5.3 43.14 4.62 40.25 4.05C37.36 3.47 30.61 2.75 25.25 2.44C19.89 2.13 14.99 2.26 14.36 2.73Z" />
	<path id="smoke_colour" class="shp1" d="M13.07 15.18C10.89 19.76 8.56 25.75 7.9 28.5C7.23 31.25 6.98 34.29 7.34 35.25C7.76 36.37 10.53 37.72 15 39C19.7 40.34 22.74 40.72 24.25 40.15C25.49 39.68 27.96 37.43 29.75 35.15L33 31C27.96 28.9 25.71 28 24.75 27.65C23.79 27.29 22.98 26.44 22.96 25.75C22.93 25.06 23.49 23.96 24.21 23.3C25.22 22.36 26.85 22.74 31.75 25.05C36.35 27.22 38 28.53 38 30C38 31.1 35.41 35.2 32.25 39.1C27.32 45.19 26.14 46.13 24 45.68C22.63 45.39 20.26 44.9 18.75 44.58C16.27 44.06 16.01 44.27 16.06 46.75C16.09 48.26 16.49 51.75 16.94 54.5C17.65 58.85 17.43 60.15 15.21 64.5C13.8 67.25 12.69 70.4 12.73 71.5C12.78 72.6 13.6 75.3 14.56 77.5L16.31 81.5C21.11 71.17 23.63 66.97 25 65.49C26.38 64.01 30.2 61.43 33.5 59.76C36.8 58.08 43.33 54.34 48 51.44C55.57 46.75 56.49 45.86 56.37 43.34C56.3 41.78 54.82 35.33 53.07 29C51.33 22.68 49.13 15.93 48.2 14C47.09 11.72 45.89 10.59 44.75 10.75C43.79 10.89 42.44 10.57 41.75 10.05C41.06 9.52 37.8 8.83 34.5 8.51C31.2 8.19 25.92 7.69 22.77 7.4L17.04 6.86L13.07 15.18Z" />
</svg>