<svg version="1.2" baseProfile="tiny-ps" xmlns="http://www.w3.org/2000/svg" viewBox="0 0 424 496" width="184" height="257">
	<title>Laptop light</title>
	<style>
		tspan { white-space:pre }
	</style>
	<g id="Laptop">
		<path id="Path 0" class="lightPath" d="M179.66 114.71C177 114.99 170.25 115.85 164.66 116.62C159.07 117.4 148.65 119.55 141.5 121.39C134.35 123.24 122.65 127.19 115.5 130.17C108.35 133.16 98.22 138.13 93 141.21C87.78 144.29 79.81 149.44 75.31 152.66C70.8 155.87 62.91 162.32 57.76 167C52.62 171.68 45.19 179.32 41.26 184C37.33 188.68 31.91 195.65 29.21 199.5C26.51 203.35 22.9 208.98 21.19 212C18.73 216.37 17.96 219.15 17.45 225.5C16.91 232.14 17.25 235.45 19.45 245C20.9 251.32 24.28 267.07 26.96 280C29.64 292.93 32.81 307.32 34.01 312C35.2 316.68 38.59 327.93 41.54 337L46.9 353.5C55.89 354.67 65.47 355.7 74 356.54C82.53 357.38 94.9 358.76 101.5 359.62C108.1 360.47 116.88 361.79 121 362.55C125.13 363.31 138.4 365.99 150.5 368.5C162.6 371.01 173.85 373.32 175.5 373.64C177.15 373.96 182.32 375.36 187 376.75C191.68 378.14 196.27 379.78 197.2 380.39C198.14 381 199.1 382.4 199.35 383.5C199.59 384.6 202.1 394.27 204.92 405C207.74 415.73 211.39 430.35 213.04 437.5C214.68 444.65 219.24 460.4 223.16 472.5C227.08 484.6 230.66 494.95 231.12 495.5C231.65 496.14 232.72 495.78 234.06 494.5C235.22 493.4 238.23 489.35 240.75 485.5C243.27 481.65 247.73 475.46 250.66 471.75C253.89 467.67 256 464.01 256 462.5C256 461.13 256.45 459.1 257 458C257.55 456.9 263.74 450.25 270.75 443.22C277.76 436.19 292.5 422.58 303.5 412.97C314.49 403.36 330.87 388.52 339.88 380C348.89 371.48 356.43 364.16 356.63 363.75C356.83 363.34 359.59 361.11 362.75 358.79C365.91 356.48 372.71 350.51 377.86 345.54C383 340.57 388.18 334.7 389.36 332.5C391.35 328.79 391.49 327.1 391.43 309C391.37 293.74 390.88 286.67 389.15 276.5C387.87 268.95 385.04 257.84 382.39 250C379.88 242.57 375.12 231.1 371.8 224.5C368.48 217.9 363.72 209.35 361.22 205.5C358.73 201.65 354.41 195.57 351.63 192C348.86 188.43 343.9 182.57 340.62 179C337.33 175.43 331.24 169.42 327.07 165.65C322.91 161.88 314.77 155.43 309 151.31C303.23 147.2 294.68 141.75 290 139.2C285.32 136.65 276.32 132.38 270 129.7C263.68 127.02 252.43 123.26 245 121.35C237.57 119.45 227.23 117.24 222 116.46C216.77 115.68 206.2 114.85 198.5 114.63C190.8 114.4 182.32 114.44 179.66 114.71Z" />
	</g>
</svg>